<?xml version="1.0" encoding="iso-8859-1"?>
<!-- Generator: Adobe Illustrator 19.0.0, SVG Export Plug-In . SVG Version: 6.00 Build 0)  -->
<svg version="1.1" id="Layer_1" xmlns="http://www.w3.org/2000/svg" xmlns:xlink="http://www.w3.org/1999/xlink" x="0px" y="0px"
	 viewBox="0 0 482.462 482.462" style="enable-background:new 0 0 482.462 482.462;" xml:space="preserve">
<g>
	<g>
		<path d="M251.077,34.067V0h-19.692v34.067C113.882,39.24,19.87,136.418,19.87,255.173h19.692c0-2.09,0.25-4.118,0.314-6.193
			c3.112-30.544,28.989-54.461,60.345-54.461c33.447,0,60.659,27.212,60.659,60.654h19.692c0-30.083,22.043-55.054,50.813-59.781
			v244.743c0,12.481-10.154,22.635-22.639,22.635c-12.481,0-22.635-10.154-22.635-22.635v-23h-19.692v23
			c0,23.337,18.986,42.327,42.327,42.327c23.341,0,42.332-18.99,42.332-42.327V195.392c28.77,4.727,50.812,29.698,50.812,59.781
			h19.692c0-33.442,27.212-60.654,60.659-60.654c31.356,0,57.233,23.917,60.345,54.461c0.064,2.075,0.314,4.103,0.314,6.193h19.692
			C462.591,136.418,368.579,39.24,251.077,34.067z M382.24,174.827c-30.369,0-56.846,16.937-70.505,41.856
			c-13.659-24.919-40.136-41.856-70.505-41.856c-30.369,0-56.846,16.937-70.505,41.856c-13.659-24.919-40.136-41.856-70.505-41.856
			c-19.221,0-36.873,6.798-50.716,18.094C75.811,112.115,151.76,53.51,241.231,53.51s165.419,58.606,191.725,139.412
			C419.114,181.625,401.461,174.827,382.24,174.827z"/>
	</g>
</g>
<g>
</g>
<g>
</g>
<g>
</g>
<g>
</g>
<g>
</g>
<g>
</g>
<g>
</g>
<g>
</g>
<g>
</g>
<g>
</g>
<g>
</g>
<g>
</g>
<g>
</g>
<g>
</g>
<g>
</g>
</svg>
